<svg height="469.33334pt" viewBox="0 0 469.33334 469.33334" width="469.33334pt" xmlns="http://www.w3.org/2000/svg"><path d="m448 0h-417.832031c-12.199219 0-23.203125 7.351562-27.871094 18.625-4.671875 11.273438-2.089844 24.25 6.539063 32.878906l33.832031 33.828125v341.335938c0 23.5625 19.101562 42.664062 42.664062 42.664062h320c23.566407 0 42.667969-19.101562 42.667969-42.664062v-384c11.78125 0 21.332031-9.550781 21.332031-21.335938 0-11.78125-9.550781-21.332031-21.332031-21.332031zm0 0" fill="#bcc5ff"/><path d="m341.332031 426.667969v-384c11.785157 0 21.335938-9.550781 21.335938-21.335938 0-11.78125-9.550781-21.332031-21.335938-21.332031h-311.164062c-12.199219 0-23.203125 7.351562-27.871094 18.625-4.671875 11.273438-2.089844 24.25 6.539063 32.878906l33.832031 33.828125v341.335938c0 23.5625 19.101562 42.664062 42.664062 42.664062h213.335938c23.5625 0 42.664062-19.101562 42.664062-42.664062zm0 0" fill="#d6deff"/><path d="m42.667969 426.667969c0 23.5625 19.101562 42.664062 42.664062 42.664062h320c23.566407 0 42.667969-19.101562 42.667969-42.664062v-192h-405.332031zm0 0" fill="#b244f1"/><path d="m341.332031 426.667969v-192h-298.664062v192c0 23.5625 19.101562 42.664062 42.664062 42.664062h213.335938c23.5625 0 42.664062-19.101562 42.664062-42.664062zm0 0" fill="#c175ff"/><g fill="#eff2ff"><path d="m330.667969 106.667969h-64c-5.894531.003906-10.679688-4.773438-10.679688-10.667969s4.785157-10.671875 10.679688-10.667969h64c5.890625 0 10.664062 4.777344 10.664062 10.667969s-4.773437 10.667969-10.664062 10.667969zm0 0"/><path d="m330.667969 170.667969h-64c-5.894531.003906-10.679688-4.773438-10.679688-10.667969s4.785157-10.671875 10.679688-10.667969h64c5.894531-.003906 10.675781 4.773438 10.675781 10.667969s-4.78125 10.671875-10.675781 10.667969zm0 0"/><path d="m330.667969 234.667969h-64c-5.894531.003906-10.679688-4.773438-10.679688-10.667969s4.785157-10.671875 10.679688-10.667969h64c5.894531-.003906 10.675781 4.773438 10.675781 10.667969s-4.78125 10.671875-10.675781 10.667969zm0 0"/><path d="m330.667969 298.667969h-64c-5.894531.003906-10.679688-4.773438-10.679688-10.667969s4.785157-10.671875 10.679688-10.667969h64c5.894531-.003906 10.675781 4.773438 10.675781 10.667969s-4.78125 10.671875-10.675781 10.667969zm0 0"/><path d="m330.667969 362.667969h-64c-5.894531.003906-10.679688-4.773438-10.679688-10.667969s4.785157-10.671875 10.679688-10.667969h64c5.894531-.003906 10.675781 4.773438 10.675781 10.667969s-4.78125 10.671875-10.675781 10.667969zm0 0"/><path d="m330.667969 426.667969h-64c-5.890625 0-10.667969-4.777344-10.667969-10.667969s4.777344-10.667969 10.667969-10.667969h64c5.894531-.003906 10.675781 4.773438 10.675781 10.667969s-4.78125 10.671875-10.675781 10.667969zm0 0"/><path d="m85.332031 0h85.335938c11.78125 0 21.332031 9.550781 21.332031 21.332031 0 11.785157-9.550781 21.335938-21.332031 21.335938h-85.335938c-11.78125 0-21.332031-9.550781-21.332031-21.335938 0-11.78125 9.550781-21.332031 21.332031-21.332031zm0 0"/><path d="m149.332031 106.667969c23.566407 0 42.667969 19.101562 42.667969 42.664062v42.667969c0 23.5625-19.101562 42.667969-42.667969 42.667969-23.5625 0-42.664062-19.105469-42.664062-42.667969v-42.667969c0-23.5625 19.101562-42.664062 42.664062-42.664062zm0 0"/></g><path d="m149.332031 256c23.566407 0 42.667969 19.101562 42.667969 42.667969v85.332031c0 23.5625-19.101562 42.667969-42.667969 42.667969-23.5625 0-42.664062-19.105469-42.664062-42.667969v-85.332031c0-23.566407 19.101562-42.667969 42.664062-42.667969zm0 0" fill="#cf94ff"/></svg>